<svg width="371" height="376" viewBox="0 0 371 376" fill="none" xmlns="http://www.w3.org/2000/svg">
<rect width="370.094" height="376" rx="59" fill="#1E1E20"/>
<circle cx="188.173" cy="188.173" r="159.173" fill="white"/>
<path d="M187.8 100C179.305 100 171.429 103.737 165.519 110.657C162.983 113.786 161.154 117.102 159.558 120.008L159.245 120.634C158.109 122.913 156.908 125.282 155.543 127.889L155.243 128.556C141.779 155.197 130.169 179.393 119.569 202.857L118.902 204.3C118.449 205.282 117.999 206.293 117.609 207.199L117.037 208.438C116.619 209.357 116.202 210.29 115.853 211.119C115.038 212.973 114.214 214.902 113.322 217.271C111.14 223.731 110.519 229.593 111.362 235.795C113.25 248.597 121.736 259.595 133.52 264.501C138.015 266.354 142.56 267.25 147.39 267.25C148.456 267.25 150.05 267.167 151.827 266.923C157.653 266.171 163.327 264.198 168.582 261.125C174.71 257.669 180.734 252.692 187.433 245.541L187.705 245.908L187.814 245.758C194.078 252.462 200.151 257.504 206.311 261.071C211.663 264.2 217.331 266.164 223.039 266.896C224.899 267.161 226.517 267.25 227.666 267.25C232.433 267.25 237.03 266.349 241.413 264.433V264.446C253.079 259.763 261.53 248.99 263.558 236.245L263.762 235.101C264.863 229.673 264.324 223.886 262.143 217.475C261.864 216.646 261.507 215.824 261.312 215.42C260.776 213.977 260.194 212.621 259.72 211.554C259.309 210.523 258.852 209.555 258.413 208.615L257.311 206.124C256.941 205.287 256.599 204.462 256.208 203.647L255.759 202.775C244.303 177.5 232.366 152.651 220.303 128.937L219.718 127.766C218.435 125.397 217.143 122.816 215.784 120.035L215.389 119.273C213.961 116.688 212.494 114.033 210.285 111.392L209.959 110.97C204.439 103.89 196.567 100 187.8 100ZM187.61 114.087C191.729 114.023 195.788 115.715 198.634 119.15L199.369 120.076C200.833 121.748 201.867 123.628 203.031 125.697L203.453 126.609C204.742 129.181 206.098 131.904 207.359 134.218L207.863 135.238C219.856 158.807 231.696 183.464 242.979 208.342L243.972 210.547L244.054 210.629C244.207 210.977 244.363 211.322 244.517 211.677L245.769 214.481C246.103 215.212 246.446 215.953 246.885 217.012C247.317 217.995 247.803 219.091 248.409 220.687C248.59 221.105 248.794 221.528 248.94 221.953L248.954 221.994C250.41 226.245 250.726 229.68 250.002 232.774L249.825 233.808C248.633 241.843 243.416 248.633 235.778 251.72C233.521 252.744 230.642 253.312 227.666 253.312C227.011 253.312 226.095 253.255 224.917 253.081C220.966 252.579 217.063 251.22 213.307 249.025C207.826 245.851 202.275 241.085 196.361 234.489L196.811 233.903C206.344 221.457 212.309 210.08 214.532 200.094L214.546 200.04C215.619 195.092 215.826 190.432 215.185 186.306C214.656 182.299 213.217 178.466 210.966 174.982C206.123 167.303 197.42 162.719 187.664 162.719C178.312 162.719 169.681 167.165 164.58 174.615L164.199 175.254C162.032 178.711 160.665 182.415 160.17 186.143C159.48 190.575 159.682 195.122 160.769 199.944C162.908 210.014 169.068 221.783 178.531 233.971L178.817 234.339L178.803 234.353C172.469 241.349 167.048 245.993 161.64 249.039C157.912 251.213 154.018 252.586 149.962 253.108C148.903 253.262 147.996 253.312 147.39 253.312C144.365 253.312 141.643 252.775 138.856 251.625C131.58 248.6 126.327 241.752 125.163 233.835C124.62 229.87 125.048 226.148 126.456 221.98C127.167 220.085 127.895 218.38 128.661 216.645C129.003 215.83 129.374 215.024 129.736 214.222L130.376 212.779C130.766 211.88 131.17 210.99 131.574 210.112L132.418 208.233C142.78 185.313 154.314 161.317 167.806 134.612L168.037 134.068C169.271 131.719 170.514 129.251 171.699 126.881L171.876 126.514C173.144 124.221 174.579 121.621 176.231 119.586C179.311 115.976 183.49 114.152 187.61 114.087ZM187.664 176.656C192.605 176.656 196.9 178.802 199.192 182.482C200.384 184.321 201.098 186.175 201.384 188.294C201.781 190.823 201.618 193.86 200.921 197.073C199.276 204.438 194.815 213.114 187.623 222.919C180.522 213.324 175.962 204.427 174.38 196.977C173.662 193.799 173.505 190.959 173.944 188.144C174.216 186.172 174.917 184.321 176.109 182.482L176.245 182.25C178.774 178.738 183.016 176.656 187.664 176.656Z" fill="#1E1E20"/>
</svg>