<svg width="371" height="376" viewBox="0 0 371 376" fill="none" xmlns="http://www.w3.org/2000/svg">
<rect width="370.094" height="376" rx="59" fill="#1E1E20"/>
<circle cx="188.173" cy="188.173" r="159.173" fill="white"/>
<path d="M199.237 85.0046C199.012 84.9963 198.786 84.9992 198.562 85.0134C197.481 85.0781 196.431 85.4018 195.502 85.9571L157.159 108.903C151.086 112.535 147.349 119.1 147.349 126.16V141.6L144.079 139.643C142.915 138.947 141.568 138.618 140.213 138.699C139.132 138.764 138.083 139.087 137.154 139.643L98.8102 162.588C92.7374 166.22 89.0007 172.785 89.0007 179.846V266.194C88.9881 267.083 89.1529 267.966 89.4856 268.791C89.8182 269.616 90.3121 270.367 90.9386 271.001C91.565 271.634 92.3114 272.137 93.1345 272.48C93.9576 272.823 94.841 273 95.7332 273C96.6254 273 97.5087 272.823 98.3318 272.48C99.1549 272.137 99.9014 271.634 100.528 271.001C101.154 270.367 101.648 269.616 101.981 268.791C102.313 267.966 102.478 267.083 102.466 266.194V179.846C102.466 177.478 103.697 175.315 105.736 174.096L140.617 153.23L175.498 174.088C177.533 175.304 178.767 177.476 178.767 179.837V208.034V266.194C178.755 267.083 178.92 267.966 179.252 268.791C179.585 269.616 180.079 270.367 180.705 271.001C181.332 271.634 182.078 272.137 182.901 272.48C183.724 272.823 184.608 273 185.5 273C186.392 273 187.276 272.823 188.099 272.48C188.922 272.137 189.668 271.634 190.295 271.001C190.921 270.367 191.415 269.616 191.748 268.791C192.08 267.966 192.245 267.083 192.233 266.194V208.034C192.233 201.779 197.178 196.85 203.453 196.85H242.744C243.467 196.968 244.204 196.968 244.927 196.85H257.313C263.589 196.85 268.534 201.779 268.534 208.034V266.194C268.522 267.083 268.687 267.966 269.019 268.791C269.352 269.616 269.846 270.367 270.472 271.001C271.099 271.634 271.845 272.137 272.668 272.48C273.491 272.823 274.375 273 275.267 273C276.159 273 277.042 272.823 277.865 272.48C278.689 272.137 279.435 271.634 280.061 271.001C280.688 270.367 281.182 269.616 281.514 268.791C281.847 267.966 282.012 267.083 281.999 266.194V208.034C281.999 194.524 270.867 183.428 257.313 183.428H250.581V126.151C250.581 119.091 246.851 112.527 240.771 108.894L202.428 85.9571C201.461 85.3782 200.364 85.0507 199.237 85.0046ZM198.965 99.5445L233.846 120.402C235.882 121.618 237.116 123.79 237.116 126.151V183.428H203.453C199.354 183.428 195.648 184.697 192.233 186.487V179.837C192.233 172.777 188.502 166.213 182.423 162.58L160.814 149.656V126.16C160.814 123.792 162.045 121.629 164.084 120.411L198.965 99.5445ZM178.767 125.269C176.29 125.269 174.279 127.273 174.279 129.743V138.69C174.279 141.16 176.29 143.164 178.767 143.164H187.744C190.222 143.164 192.233 141.16 192.233 138.69V129.743C192.233 127.273 190.222 125.269 187.744 125.269H178.767ZM210.186 125.269C207.708 125.269 205.698 127.273 205.698 129.743V138.69C205.698 141.16 207.708 143.164 210.186 143.164H219.163C221.64 143.164 223.651 141.16 223.651 138.69V129.743C223.651 127.273 221.64 125.269 219.163 125.269H210.186ZM210.186 156.586C207.708 156.586 205.698 158.59 205.698 161.059V170.007C205.698 172.476 207.708 174.481 210.186 174.481H219.163C221.64 174.481 223.651 172.476 223.651 170.007V161.059C223.651 158.59 221.64 156.586 219.163 156.586H210.186ZM120.419 178.955C117.941 178.955 115.931 180.959 115.931 183.428V192.376C115.931 194.845 117.941 196.85 120.419 196.85H129.396C131.873 196.85 133.884 194.845 133.884 192.376V183.428C133.884 180.959 131.873 178.955 129.396 178.955H120.419ZM151.837 178.955C149.36 178.955 147.349 180.959 147.349 183.428V192.376C147.349 194.845 149.36 196.85 151.837 196.85H160.814C163.292 196.85 165.302 194.845 165.302 192.376V183.428C165.302 180.959 163.292 178.955 160.814 178.955H151.837ZM120.419 210.271C117.941 210.271 115.931 212.275 115.931 214.745V223.693C115.931 226.162 117.941 228.166 120.419 228.166H129.396C131.873 228.166 133.884 226.162 133.884 223.693V214.745C133.884 212.275 131.873 210.271 129.396 210.271H120.419ZM151.837 210.271C149.36 210.271 147.349 212.275 147.349 214.745V223.693C147.349 226.162 149.36 228.166 151.837 228.166H160.814C163.292 228.166 165.302 226.162 165.302 223.693V214.745C165.302 212.275 163.292 210.271 160.814 210.271H151.837ZM210.186 210.271C207.708 210.271 205.698 212.275 205.698 214.745V223.693C205.698 226.162 207.708 228.166 210.186 228.166H219.163C221.64 228.166 223.651 226.162 223.651 223.693V214.745C223.651 212.275 221.64 210.271 219.163 210.271H210.186ZM241.604 210.271C239.127 210.271 237.116 212.275 237.116 214.745V223.693C237.116 226.162 239.127 228.166 241.604 228.166H250.581C253.058 228.166 255.069 226.162 255.069 223.693V214.745C255.069 212.275 253.058 210.271 250.581 210.271H241.604ZM120.419 241.588C117.941 241.588 115.931 243.592 115.931 246.062V255.009C115.931 257.479 117.941 259.483 120.419 259.483H129.396C131.873 259.483 133.884 257.479 133.884 255.009V246.062C133.884 243.592 131.873 241.588 129.396 241.588H120.419ZM151.837 241.588C149.36 241.588 147.349 243.592 147.349 246.062V255.009C147.349 257.479 149.36 259.483 151.837 259.483H160.814C163.292 259.483 165.302 257.479 165.302 255.009V246.062C165.302 243.592 163.292 241.588 160.814 241.588H151.837ZM210.186 241.588C207.708 241.588 205.698 243.592 205.698 246.062V255.009C205.698 257.479 207.708 259.483 210.186 259.483H219.163C221.64 259.483 223.651 257.479 223.651 255.009V246.062C223.651 243.592 221.64 241.588 219.163 241.588H210.186ZM241.604 241.588C239.127 241.588 237.116 243.592 237.116 246.062V255.009C237.116 257.479 239.127 259.483 241.604 259.483H250.581C253.058 259.483 255.069 257.479 255.069 255.009V246.062C255.069 243.592 253.058 241.588 250.581 241.588H241.604Z" fill="#1E1E20"/>
</svg>