<svg width="371" height="376" viewBox="0 0 371 376" fill="none" xmlns="http://www.w3.org/2000/svg">
<rect width="370.094" height="376" rx="59" fill="#B79C75"/>
<circle cx="188.173" cy="188.173" r="159.173" fill="white"/>
<path d="M136.444 108C121.363 108 109 121.014 109 136.889V239.111C109 254.986 121.363 268 136.444 268H233.556C248.637 268 261 254.986 261 239.111V136.889C261 121.014 248.637 108 233.556 108H136.444ZM136.444 121.333H233.556C241.789 121.333 248.333 128.222 248.333 136.889V143.556H121.667V136.889C121.667 128.222 128.211 121.333 136.444 121.333ZM121.667 156.889H248.333V239.111C248.333 247.778 241.789 254.667 233.556 254.667H136.444C128.211 254.667 121.667 247.778 121.667 239.111V156.889ZM149.111 174.667C146.312 174.667 143.627 175.837 141.647 177.921C139.668 180.005 138.556 182.831 138.556 185.778C138.556 188.725 139.668 191.551 141.647 193.635C143.627 195.718 146.312 196.889 149.111 196.889C151.911 196.889 154.595 195.718 156.575 193.635C158.555 191.551 159.667 188.725 159.667 185.778C159.667 182.831 158.555 180.005 156.575 177.921C154.595 175.837 151.911 174.667 149.111 174.667ZM185 174.667C182.2 174.667 179.516 175.837 177.536 177.921C175.557 180.005 174.444 182.831 174.444 185.778C174.444 188.725 175.557 191.551 177.536 193.635C179.516 195.718 182.2 196.889 185 196.889C187.8 196.889 190.484 195.718 192.464 193.635C194.443 191.551 195.556 188.725 195.556 185.778C195.556 182.831 194.443 180.005 192.464 177.921C190.484 175.837 187.8 174.667 185 174.667V174.667ZM220.889 174.667C218.089 174.667 215.405 175.837 213.425 177.921C211.445 180.005 210.333 182.831 210.333 185.778C210.333 188.725 211.445 191.551 213.425 193.635C215.405 195.718 218.089 196.889 220.889 196.889C223.688 196.889 226.373 195.718 228.353 193.635C230.332 191.551 231.444 188.725 231.444 185.778C231.444 182.831 230.332 180.005 228.353 177.921C226.373 175.837 223.688 174.667 220.889 174.667ZM149.111 214.667C146.312 214.667 143.627 215.837 141.647 217.921C139.668 220.005 138.556 222.831 138.556 225.778C138.556 228.725 139.668 231.551 141.647 233.635C143.627 235.718 146.312 236.889 149.111 236.889C151.911 236.889 154.595 235.718 156.575 233.635C158.555 231.551 159.667 228.725 159.667 225.778C159.667 222.831 158.555 220.005 156.575 217.921C154.595 215.837 151.911 214.667 149.111 214.667ZM185 214.667C182.2 214.667 179.516 215.837 177.536 217.921C175.557 220.005 174.444 222.831 174.444 225.778C174.444 228.725 175.557 231.551 177.536 233.635C179.516 235.718 182.2 236.889 185 236.889C187.8 236.889 190.484 235.718 192.464 233.635C194.443 231.551 195.556 228.725 195.556 225.778C195.556 222.831 194.443 220.005 192.464 217.921C190.484 215.837 187.8 214.667 185 214.667V214.667Z" fill="#B79C75"/>
</svg>