<svg width="22" height="18" viewBox="0 0 22 18" fill="none" xmlns="http://www.w3.org/2000/svg">
<path d="M5.82689 3.1749C5.46581 3.75354 4.86127 4.13398 4.186 4.22994C3.80655 4.28386 3.42853 4.34223 3.05199 4.40497C1.99912 4.58042 1.25 5.50663 1.25 6.57402V15C1.25 16.2426 2.25736 17.25 3.5 17.25H18.5C19.7426 17.25 20.75 16.2426 20.75 15V6.57403C20.75 5.50664 20.0009 4.58043 18.948 4.40498C18.5715 4.34223 18.1934 4.28387 17.814 4.22995C17.1387 4.13398 16.5342 3.75354 16.1731 3.17491L15.3519 1.85889C14.9734 1.25237 14.3294 0.858383 13.6155 0.820048C12.7496 0.773548 11.8775 0.75 11 0.75C10.1225 0.75 9.25044 0.773548 8.3845 0.820048C7.6706 0.858383 7.02658 1.25237 6.64809 1.85889L5.82689 3.1749Z" stroke="#BC9C75" stroke-width="1.5" stroke-linecap="round" stroke-linejoin="round"/>
<path d="M15.5 9.75C15.5 12.2353 13.4853 14.25 11 14.25C8.51472 14.25 6.5 12.2353 6.5 9.75C6.5 7.26472 8.51472 5.25 11 5.25C13.4853 5.25 15.5 7.26472 15.5 9.75Z" stroke="#BC9C75" stroke-width="1.5" stroke-linecap="round" stroke-linejoin="round"/>
<path d="M17.75 7.5H17.7575V7.5075H17.75V7.5Z" stroke="#BC9C75" stroke-width="1.5" stroke-linecap="round" stroke-linejoin="round"/>
</svg>