<svg width="371" height="376" viewBox="0 0 371 376" fill="none" xmlns="http://www.w3.org/2000/svg">
<rect width="370.094" height="376" rx="59" fill="#1E1E20"/>
<circle cx="188.173" cy="188.173" r="159.173" fill="white"/>
<path d="M143 111C130.058 111 119.429 121.61 119.429 134.528V150.586C119.315 151.275 119.315 151.978 119.429 152.667V183.831C107.48 184.927 98.0003 195.055 98.0003 207.25V237.194C97.9973 237.505 98.0169 237.815 98.0589 238.122C98.0397 238.526 98.0003 238.925 98.0003 239.333C98.0003 253.431 109.591 265 123.714 265C134.833 265 144.354 257.818 147.914 247.889H228.086C231.646 257.818 241.166 265 252.285 265C266.409 265 277.999 253.431 277.999 239.333C277.999 238.934 277.959 238.542 277.941 238.147C277.984 237.831 278.004 237.513 277.999 237.194V206.272C277.999 196.694 273.045 187.772 264.908 182.695L242.952 168.992L233.761 129.239C231.3 118.599 221.735 111 210.793 111H143ZM143 123.833H210.793C215.819 123.833 220.1 127.233 221.231 132.122L230.472 172.067L223.558 184.474L205.662 166.611L209.688 162.592C210.615 161.691 211.248 160.531 211.504 159.264C211.76 157.997 211.627 156.683 211.123 155.493C210.618 154.303 209.765 153.293 208.676 152.595C207.586 151.897 206.311 151.543 205.017 151.58C203.348 151.629 201.762 152.324 200.597 153.519L183.455 170.63C182.838 171.221 182.345 171.929 182.006 172.713C181.667 173.497 181.487 174.34 181.479 175.194C181.47 176.047 181.632 176.894 181.955 177.685C182.279 178.475 182.757 179.193 183.361 179.797C183.966 180.4 184.685 180.877 185.477 181.2C186.269 181.523 187.118 181.685 187.973 181.676C188.828 181.667 189.673 181.488 190.458 181.15C191.243 180.811 191.953 180.319 192.545 179.703L196.571 175.685L217.071 196.146L215.137 199.613C213.239 203.018 209.673 205.119 205.77 205.119H192.955C190.119 205.119 187.39 203.984 185.38 201.978L173.996 190.615C171.506 188.126 168.504 186.278 165.249 185.118L157.297 161.306C157.294 161.306 157.291 161.306 157.289 161.306C154.086 151.726 145.054 145.222 134.931 145.222H132.286V134.528C132.286 128.546 137.008 123.833 143 123.833ZM132.286 158.056H134.931C139.568 158.056 143.624 160.975 145.093 165.366L151.22 183.722H132.286V158.056ZM239.621 182.051L258.094 193.573C262.489 196.315 265.142 201.101 265.142 206.272V217.167C261.349 214.958 256.963 213.667 252.285 213.667C239.624 213.667 229.029 222.974 226.965 235.056H149.035C146.97 222.974 136.376 213.667 123.714 213.667C119.037 213.667 114.65 214.958 110.857 217.167V207.25C110.857 201.269 115.579 196.556 121.572 196.556H124.803C125.493 196.669 126.197 196.669 126.887 196.556H157.33C160.177 196.556 162.887 197.68 164.897 199.689L176.29 211.06C180.708 215.47 186.706 217.953 192.955 217.953H205.77C214.322 217.953 222.217 213.307 226.37 205.855C226.373 205.852 226.376 205.849 226.379 205.846L239.621 182.051ZM123.714 226.5C130.882 226.5 136.572 232.179 136.572 239.333C136.572 246.488 130.882 252.167 123.714 252.167C116.547 252.167 110.857 246.488 110.857 239.333C110.857 232.179 116.547 226.5 123.714 226.5ZM252.285 226.5C259.453 226.5 265.142 232.179 265.142 239.333C265.142 246.488 259.453 252.167 252.285 252.167C245.118 252.167 239.428 246.488 239.428 239.333C239.428 232.179 245.118 226.5 252.285 226.5Z" fill="#1E1E20"/>
</svg>