<svg width="371" height="376" viewBox="0 0 371 376" fill="none" xmlns="http://www.w3.org/2000/svg">
<rect width="370.094" height="376" rx="59" fill="#B79C75"/>
<circle cx="188.173" cy="188.173" r="159.173" fill="white"/>
<path d="M188.5 103C143.561 103 107 139.561 107 184.5C107 229.439 143.561 266 188.5 266C233.439 266 270 229.439 270 184.5C270 139.561 233.439 103 188.5 103ZM188.5 115.225C226.832 115.225 257.775 146.168 257.775 184.5C257.775 222.832 226.832 253.775 188.5 253.775C150.168 253.775 119.225 222.832 119.225 184.5C119.225 166.315 126.245 149.846 137.658 137.502L179.475 163.234C183.419 165.662 188.5 162.829 188.5 158.196V115.225ZM147.4 155.935C146.079 155.994 144.813 156.478 143.791 157.317C142.769 158.156 142.047 159.303 141.732 160.587C141.418 161.871 141.528 163.222 142.046 164.438C142.564 165.655 143.462 166.67 144.606 167.332L185.356 191.782C186.198 192.287 187.148 192.581 188.128 192.641C189.107 192.701 190.087 192.523 190.983 192.125L227.658 175.825C228.392 175.499 229.055 175.031 229.608 174.449C230.161 173.867 230.594 173.182 230.883 172.432C231.171 171.683 231.309 170.884 231.288 170.081C231.268 169.278 231.09 168.488 230.764 167.754C230.437 167.02 229.97 166.357 229.388 165.804C228.805 165.251 228.12 164.818 227.37 164.53C226.621 164.242 225.822 164.104 225.019 164.125C224.216 164.145 223.426 164.324 222.692 164.65L188.922 179.661L150.894 156.843C149.847 156.195 148.629 155.879 147.4 155.935V155.935Z" fill="#B79C75"/>
</svg>