<svg width="371" height="376" viewBox="0 0 371 376" fill="none" xmlns="http://www.w3.org/2000/svg">
<rect width="370.094" height="376" rx="59" fill="#B79C75"/>
<circle cx="188.173" cy="188.173" r="159.173" fill="white"/>
<path d="M140.362 117C130.625 117 122.7 124.964 122.7 134.75V186.028C122.7 195.814 130.625 203.778 140.362 203.778H150.175V191.944H140.362C137.117 191.944 134.475 189.29 134.475 186.028V134.75C134.475 131.488 137.117 128.833 140.362 128.833H247.219C244.782 121.962 238.303 117 230.637 117H140.362ZM175.687 136.722C165.934 136.722 158.025 144.67 158.025 154.472V213.639C158.025 223.441 165.934 231.389 175.687 231.389H185.5V211.667H173.725C171.558 211.667 169.8 209.9 169.8 207.722V154.472C169.8 151.206 172.438 148.556 175.687 148.556H238.487C241.737 148.556 244.375 151.206 244.375 154.472V156.444H256.15V154.472C256.15 144.67 248.241 136.722 238.487 136.722H175.687ZM211.012 164.333C201.328 164.333 193.35 172.35 193.35 182.083V241.25C193.35 250.983 201.328 259 211.012 259H246.337C256.022 259 264 250.983 264 241.25V182.083C264 172.35 256.022 164.333 246.337 164.333H211.012ZM211.012 176.167H246.337C249.66 176.167 252.225 178.744 252.225 182.083V241.25C252.225 244.589 249.66 247.167 246.337 247.167H211.012C207.69 247.167 205.125 244.589 205.125 241.25V182.083C205.125 178.744 207.69 176.167 211.012 176.167ZM112.887 207.722C109.634 207.722 107 210.369 107 213.639C107 216.909 109.634 219.556 112.887 219.556H150.175V207.722H112.887ZM222.787 227.444C222.007 227.433 221.233 227.578 220.509 227.871C219.785 228.163 219.126 228.597 218.57 229.147C218.015 229.698 217.573 230.354 217.272 231.077C216.971 231.801 216.816 232.577 216.816 233.361C216.816 234.145 216.971 234.922 217.272 235.645C217.573 236.368 218.015 237.024 218.57 237.575C219.126 238.125 219.785 238.559 220.509 238.852C221.233 239.144 222.007 239.289 222.787 239.278H234.562C235.343 239.289 236.117 239.144 236.841 238.852C237.565 238.559 238.224 238.125 238.78 237.575C239.335 237.024 239.777 236.368 240.078 235.645C240.379 234.922 240.534 234.145 240.534 233.361C240.534 232.577 240.379 231.801 240.078 231.077C239.777 230.354 239.335 229.698 238.78 229.147C238.224 228.597 237.565 228.163 236.841 227.871C236.117 227.578 235.343 227.433 234.562 227.444H222.787Z" fill="#B79C75"/>
</svg>