<svg width="24px" height="24px" viewBox="0 0 24 24" version="1.1" xmlns="http://www.w3.org/2000/svg" xmlns:xlink="http://www.w3.org/1999/xlink">
    <!-- Generator: Sketch 62 (91390) - https://sketch.com -->
    <title>Icons/block-chain-white</title>
    <desc>Created with Sketch.</desc>
    <g id="Icons/block-chain" stroke="none" stroke-width="1" fill="none" fill-rule="evenodd">
        <g id="icons8-block_chain" transform="translate(3.000000, 2.000000)" fill="#FFFFFF">
            <path d="M6,0 C4.897,0 4,0.897 4,2 L4,14 C4,15.103 4.897,16 6,16 L16,16 C17.103,16 18,15.103 18,14 L18,4.0488281 L13.998047,0 L6,0 Z M13,1.84375 L16.136719,5 L13,5 L13,1.84375 Z M2,4 C0.9069372,4 0,4.9069372 0,6 L0,18 C0,19.095455 0.9045455,20 2,20 L11,20 C12.093063,20 13,19.093063 13,18 L11,18 L2,18 L2,6 L2,4 Z M7,7 L15,7 L15,9 L7,9 L7,7 Z M7,11 L15,11 L15,13 L7,13 L7,11 Z" id="Shape"/>
        </g>
    </g>
</svg>