<svg width="371" height="376" viewBox="0 0 371 376" fill="none" xmlns="http://www.w3.org/2000/svg">
<rect width="370.094" height="376" rx="59" fill="#B79C75"/>
<circle cx="188.173" cy="188.173" r="159.173" fill="white"/>
<path d="M187.518 114C183.947 114.064 181.1 116.838 181.151 120.217V207.457L166.311 193.414C165.098 192.234 163.431 191.565 161.679 191.565C159.051 191.565 156.676 193.079 155.682 195.391C154.688 197.702 155.278 200.348 157.164 202.069L183.037 226.553C185.564 228.944 189.674 228.944 192.184 226.553L218.056 202.069C219.758 200.539 220.431 198.26 219.842 196.124C219.252 193.972 217.484 192.298 215.21 191.74C212.953 191.182 210.544 191.82 208.91 193.414L194.087 207.457V120.217C194.104 118.559 193.43 116.965 192.184 115.802C190.954 114.622 189.27 113.984 187.518 114ZM116.368 216.033C112.797 216.081 109.95 218.854 110.001 222.234V238.556C110.001 250.878 120.697 261 133.717 261H241.52C254.541 261 265.237 250.878 265.237 238.556V222.234C265.271 220.034 264.041 217.978 262.037 216.862C260.015 215.746 257.522 215.746 255.501 216.862C253.497 217.978 252.267 220.034 252.301 222.234V238.556C252.301 244.263 247.551 248.758 241.52 248.758H133.717C127.687 248.758 122.937 244.263 122.937 238.556V222.234C122.954 220.576 122.28 218.982 121.034 217.818C119.804 216.639 118.12 216.001 116.368 216.033Z" fill="#B79C75"/>
</svg>