<svg id="a" xmlns="http://www.w3.org/2000/svg" xmlns:xlink="http://www.w3.org/1999/xlink" viewBox="0 0 729.42 863.83"><defs><style>.f{fill:url(#e);}.g{fill:url(#c);}.h{clip-rule:evenodd;fill:none;}.i{fill:#0a2241;}.i,.j{fill-rule:evenodd;}.j{fill:#9b0000;}.k{clip-path:url(#b);}.l{clip-path:url(#d);}</style><clipPath id="b"><path class="h" d="M541.4,149.99l31.82,23.03-12.21,37.33,31.74-23.15,31.73,23.15-12.21-37.33,31.82-23.03-39.28,.07-12.07-37.38-12.07,37.38-39.28-.07Zm-152.02,0l31.82,23.03-12.21,37.33,31.73-23.15,31.74,23.15-12.21-37.33,31.82-23.03-39.28,.07-12.07-37.38-12.07,37.38-39.28-.07Zm-120.2,23.03l-12.21,37.33,31.73-23.15,31.73,23.15-12.21-37.33,31.82-23.03-39.27,.07-12.07-37.38-12.07,37.38-39.28-.07,31.82,23.03Zm-152.02,0l-12.21,37.33,31.73-23.15,31.73,23.15-12.21-37.33,31.82-23.03-39.27,.07-12.07-37.38-12.07,37.38-39.27-.07,31.82,23.03ZM57.25,57.25v208.54H672.18V57.25H57.25Z"/></clipPath><linearGradient id="c" x1="74.23" y1="239.36" x2="604.55" y2="97.24" gradientTransform="matrix(1, 0, 0, 1, 0, 0)" gradientUnits="userSpaceOnUse"><stop offset="0" stop-color="#0a2241"/><stop offset=".53" stop-color="#0c384e"/><stop offset="1" stop-color="#0a2241"/></linearGradient><clipPath id="d"><path class="h" d="M385.19,308.04h40.99v468.02c-13.36,6.33-27.04,12.36-40.99,18.13V308.04Zm81.98,0h40.99v422.16c-13.12,8.75-26.81,17.03-40.99,24.89V308.04Zm81.98,0h40.99v352.04c-12.51,14.09-26.23,27.24-40.99,39.58V308.04Zm81.98,0h41.05v130.06c-.41,64.39-15.28,118.57-41.05,164.63V308.04Zm-573.87,0h40.99v294.59c-25.74-46.05-40.58-100.19-40.99-164.54v-130.06Zm81.98,0h40.99v391.56c-14.76-12.34-28.48-25.5-40.99-39.6V308.04Zm81.98,0h41v447c-14.18-7.85-27.87-16.14-41-24.89V308.04Zm81.98,0h40.99v486.13c-13.95-5.77-27.63-11.8-40.99-18.14V308.04ZM28.41,28.41V435.38c0,211.51,143.78,323.08,326,393.96l10.3,4.01,10.3-4.01c182.22-70.88,326.01-182.44,326.01-393.96V28.41H28.41Zm643.77,237.38H57.25V57.25H672.18v208.54Z"/></clipPath><linearGradient id="e" x1="364.71" y1="790.56" x2="364.71" y2="28.39" gradientTransform="matrix(1, 0, 0, 1, 0, 0)" gradientUnits="userSpaceOnUse"><stop offset="0" stop-color="#e6e6e6"/><stop offset=".47" stop-color="#fff"/><stop offset="1" stop-color="#e6e6e6"/></linearGradient></defs><path class="i" d="M0,0V435.38c0,223.92,150.46,345.06,344.11,420.43l20.6,8.02,20.6-8.01c193.67-75.34,344.11-196.51,344.11-420.43V0H0ZM28.41,435.38V28.41H701.01V435.38c0,211.51-143.78,323.07-326.01,393.96l-10.3,4.01-10.3-4.01C172.18,758.45,28.41,646.89,28.41,435.38Z"/><path class="j" d="M98.25,602.63V308.04H57.26v127.35c0,.91,0,1.81,0,2.71,.4,64.35,15.25,118.49,40.99,164.54"/><path class="j" d="M139.24,308.04v351.97c12.51,14.09,26.23,27.26,40.99,39.59V308.04h-40.99Z"/><path class="j" d="M221.22,308.04v422.11c13.12,8.75,26.81,17.03,40.99,24.89V308.04h-40.99Z"/><path class="j" d="M303.2,308.04v467.99c13.36,6.33,27.04,12.37,40.99,18.14V308.04h-40.99Z"/><path class="j" d="M385.19,308.04v486.15c13.94-5.77,27.62-11.8,40.99-18.13V308.04h-40.99Z"/><path class="j" d="M467.17,308.04v447.05c14.18-7.86,27.87-16.14,40.99-24.89V308.04h-40.99Z"/><path class="j" d="M549.15,308.04v391.62c14.76-12.34,28.48-25.49,40.99-39.58V308.04h-40.99Z"/><path class="j" d="M631.13,308.04v294.69c25.77-46.07,40.63-100.24,41.04-164.63v-130.06h-41.04Z"/><g class="k"><rect class="g" x="57.25" y="57.25" width="614.93" height="208.54"/></g><g class="l"><rect class="f" x="28.41" y="28.41" width="672.61" height="804.94"/></g></svg>