<svg width="371" height="376" viewBox="0 0 371 376" fill="none" xmlns="http://www.w3.org/2000/svg">
<rect width="370.094" height="376" rx="59" fill="#1E1E20"/>
<circle cx="188.173" cy="188.173" r="159.173" fill="white"/>
<path d="M169.537 121.043C165.532 120.942 161.995 121.05 159.218 121.05C158.21 121.05 157.225 121.349 156.387 121.907C155.55 122.466 154.897 123.26 154.511 124.189C154.125 125.118 154.024 126.14 154.221 127.126C154.417 128.113 154.902 129.019 155.615 129.73C165.396 139.488 174.648 147.248 178.715 153.433C180.748 156.525 181.463 158.892 181.23 161.179C180.997 163.467 179.737 166.27 176.001 169.998L120.981 224.892C114.343 231.515 114.339 242.407 120.974 249.032C120.976 249.032 120.979 249.032 120.981 249.032C127.62 255.656 138.537 255.656 145.176 249.032L200.196 194.138L206.785 187.564L210.103 190.874C207.071 195.468 207.353 201.69 211.384 205.711L222.161 216.464C226.762 221.054 234.376 221.054 238.977 216.464L256.549 198.932C261.15 194.341 261.15 186.745 256.549 182.154L245.772 171.402C241.741 167.38 235.505 167.099 230.901 170.124L227.583 166.814L230.775 163.629C231.73 162.675 232.267 161.382 232.267 160.034C232.267 158.685 231.73 157.392 230.775 156.439L210.389 136.099C197.783 123.522 181.551 121.345 169.537 121.043ZM172.656 131.901C182.981 132.457 194.096 134.224 203.182 143.289L219.965 160.034L216.773 163.218C215.817 164.172 215.281 165.465 215.281 166.814C215.281 168.162 215.817 169.455 216.773 170.409L226.966 180.578C227.922 181.532 229.218 182.067 230.569 182.067C231.921 182.067 233.217 181.532 234.173 180.578L236.163 178.592C236.87 177.887 237.859 177.887 238.566 178.592L249.343 189.345C250.049 190.049 250.049 191.037 249.343 191.741L231.77 209.274C231.064 209.978 230.074 209.978 229.368 209.274L218.591 198.521C217.885 197.816 217.885 196.829 218.591 196.124L220.582 194.138C221.537 193.184 222.074 191.891 222.074 190.543C222.074 189.195 221.537 187.901 220.582 186.948L210.389 176.778C209.433 175.825 208.137 175.289 206.785 175.289C205.434 175.289 204.138 175.825 203.182 176.778L196.592 183.353L186.346 173.13C189.008 169.591 190.986 165.982 191.37 162.205C191.901 156.983 190.038 152.12 187.236 147.858C183.656 142.414 178.348 137.244 172.656 131.901ZM179.604 180.784L189.386 190.543L137.969 241.842C135.224 244.581 130.933 244.581 128.188 241.842C125.446 239.104 125.448 234.816 128.188 232.083L179.604 180.784Z" fill="#1E1E20"/>
</svg>