<svg width="371" height="376" viewBox="0 0 371 376" fill="none" xmlns="http://www.w3.org/2000/svg">
<rect width="370.094" height="376" rx="59" fill="#1E1E20"/>
<circle cx="188.173" cy="188.173" r="159.173" fill="white"/>
<path d="M187.778 91.0032C186.32 91.0511 184.918 91.5462 183.774 92.4162L119.026 141.511C110.808 147.744 106 157.269 106 167.339V251.039C106 257.017 111.177 262 117.389 262H162.944C169.156 262 174.333 257.017 174.333 251.039V207.193C174.333 205.9 175.267 205.001 176.611 205.001H199.389C200.733 205.001 201.667 205.9 201.667 207.193V251.039C201.667 257.017 206.844 262 213.056 262H258.611C264.823 262 270 257.017 270 251.039V167.339C270 157.269 265.192 147.744 256.974 141.511L192.226 92.4162C190.963 91.4554 189.387 90.955 187.778 91.0032ZM188 105.955L248.521 151.847C253.46 155.593 256.333 161.291 256.333 167.339V248.846H215.333V207.193C215.333 198.797 208.113 191.847 199.389 191.847H176.611C167.887 191.847 160.667 198.797 160.667 207.193V248.846H119.667V167.339C119.667 161.291 122.54 155.593 127.479 151.847L188 105.955Z" fill="#1E1E20"/>
</svg>