<svg width="2501" height="608" viewBox="0 0 2501 608" fill="none" xmlns="http://www.w3.org/2000/svg">
<rect x="1814" y="125" width="376" height="376" rx="59" fill="#1D1D20"/>
<circle cx="2002" cy="313" r="159.173" fill="white"/>
<path d="M119.5 501C90.5 501 68.6667 494.333 54 481C39.3333 467.667 32 445.167 32 413.5V131H106V401.5C106 413.833 109 422.333 115 427C121.333 431.667 129.333 434 139 434H256V501H119.5ZM370 501V389L258.5 131H335.5L408.5 313.5L481 131H555L444 389V501H370ZM707.465 504C688.465 504 668.132 503 646.465 501C625.132 498.667 606.798 495.5 591.465 491.5V433C606.132 434.333 623.798 435.5 644.465 436.5C665.465 437.167 685.298 437.5 703.965 437.5C722.965 437.5 737.965 435 748.965 430C759.965 424.667 765.465 414.667 765.465 400V386.5C765.465 375.5 762.132 367.167 755.465 361.5C748.798 355.5 739.632 352.5 727.965 352.5H696.465C661.132 352.5 633.965 344.833 614.965 329.5C596.298 313.833 586.965 287.333 586.965 250V232C586.965 196 597.132 169.667 617.465 153C638.132 136.333 667.798 128 706.465 128C726.798 128 746.965 129.333 766.965 132C787.298 134.667 804.465 137.5 818.465 140.5V199C803.132 198 785.965 197 766.965 196C748.298 195 730.965 194.5 714.965 194.5C697.632 194.5 683.632 197.167 672.965 202.5C662.632 207.833 657.465 218.833 657.465 235.5V245.5C657.465 258.5 661.132 267.833 668.465 273.5C675.798 279.167 686.632 282 700.965 282H737.465C770.465 282 795.132 291 811.465 309C827.798 327 835.965 349.667 835.965 377V398C835.965 427 830.465 449.167 819.465 464.5C808.798 479.833 793.798 490.333 774.465 496C755.465 501.333 733.132 504 707.465 504ZM967.898 501V197.5H866.398V131H1143.9V197.5H1041.9V501H967.898ZM1183.86 501V131H1339.86C1351.86 131 1364.02 132.5 1376.36 135.5C1389.02 138.167 1400.52 143.833 1410.86 152.5C1421.52 160.833 1430.02 173.5 1436.36 190.5C1443.02 207.5 1446.36 230 1446.36 258C1446.36 286.333 1443.02 309.167 1436.36 326.5C1430.02 343.5 1421.69 356.5 1411.36 365.5C1401.02 374.5 1389.86 380.5 1377.86 383.5C1365.86 386.5 1354.19 388 1342.86 388C1334.86 388 1325.19 387.5 1313.86 386.5C1302.86 385.5 1292.19 384.333 1281.86 383C1271.52 381.667 1263.52 380.667 1257.86 380V501H1183.86ZM1257.86 321.5H1331.36C1344.36 321.5 1354.36 316.667 1361.36 307C1368.36 297.333 1371.86 281.167 1371.86 258.5C1371.86 236.167 1368.19 220.5 1360.86 211.5C1353.86 202.167 1344.52 197.5 1332.86 197.5H1257.86V321.5ZM1494.4 501V131H1647.4C1666.74 131 1684.4 134.333 1700.4 141C1716.4 147.333 1729.07 159.167 1738.4 176.5C1748.07 193.5 1752.9 217.833 1752.9 249.5C1752.9 272.5 1750.07 290.833 1744.4 304.5C1738.74 317.833 1731.4 328.167 1722.4 335.5C1713.4 342.833 1704.07 348.5 1694.4 352.5L1763.4 501H1687.9L1628.4 364C1620.07 364 1610.24 364 1598.9 364C1587.57 363.667 1577.4 363.333 1568.4 363V501H1494.4ZM1568.4 304.5H1634.4C1647.74 304.5 1658.4 300.833 1666.4 293.5C1674.74 285.833 1678.9 271.167 1678.9 249.5C1678.9 228.5 1674.74 214.667 1666.4 208C1658.07 201 1647.4 197.5 1634.4 197.5H1568.4V304.5Z" fill="#1D1D20"/>
<path d="M2355.5 504C2336.5 504 2316.17 503 2294.5 501C2273.17 498.667 2254.83 495.5 2239.5 491.5V433C2254.17 434.333 2271.83 435.5 2292.5 436.5C2313.5 437.167 2333.33 437.5 2352 437.5C2371 437.5 2386 435 2397 430C2408 424.667 2413.5 414.667 2413.5 400V386.5C2413.5 375.5 2410.17 367.167 2403.5 361.5C2396.83 355.5 2387.67 352.5 2376 352.5H2344.5C2309.17 352.5 2282 344.833 2263 329.5C2244.33 313.833 2235 287.333 2235 250V232C2235 196 2245.17 169.667 2265.5 153C2286.17 136.333 2315.83 128 2354.5 128C2374.83 128 2395 129.333 2415 132C2435.33 134.667 2452.5 137.5 2466.5 140.5V199C2451.17 198 2434 197 2415 196C2396.33 195 2379 194.5 2363 194.5C2345.67 194.5 2331.67 197.167 2321 202.5C2310.67 207.833 2305.5 218.833 2305.5 235.5V245.5C2305.5 258.5 2309.17 267.833 2316.5 273.5C2323.83 279.167 2334.67 282 2349 282H2385.5C2418.5 282 2443.17 291 2459.5 309C2475.83 327 2484 349.667 2484 377V398C2484 427 2478.5 449.167 2467.5 464.5C2456.83 479.833 2441.83 490.333 2422.5 496C2403.5 501.333 2381.17 504 2355.5 504Z" fill="#1D1D20"/>
</svg>