<svg width="24px" height="24px" viewBox="0 0 24 24" version="1.1" xmlns="http://www.w3.org/2000/svg" xmlns:xlink="http://www.w3.org/1999/xlink">
    <!-- Generator: Sketch 62 (91390) - https://sketch.com -->
    <title>Icons/pencil-white</title>
    <desc>Created with Sketch.</desc>
    <g id="Icons/pencil" stroke="none" stroke-width="1" fill="none" fill-rule="evenodd">
        <g id="icons8-pencil" transform="translate(3.000000, 2.000000)" fill="#FFFFFF">
            <path d="M15.414062,0 C15.158188,0 14.902031,0.0974687 14.707031,0.2929688 L13,2 L17,6 L18.707031,4.2929688 C19.098031,3.9019687 19.098031,3.2689063 18.707031,2.8789062 L16.121094,0.2929688 C15.925594,0.0974687 15.669937,0 15.414062,0 Z M11.5,3.5 L2,13 C2,13 3.005,13.005 3.5,13.5 C3.995,13.995 3.984375,14.984375 3.984375,14.984375 C3.984375,14.984375 5.004,15.004 5.5,15.5 C5.996,15.996 6,17 6,17 L15.5,7.5 L11.5,3.5 Z M0.6699219,15 L0,19 L4,18.330078 L0.6699219,15 Z" id="Shape"/>
        </g>
    </g>
</svg>