<svg fill="#000000" xmlns="http://www.w3.org/2000/svg" viewBox="0 0 48 48" width="48px" height="48px"><path d="M 8.5 7 C 5.4802259 7 3 9.4802259 3 12.5 L 3 35.5 C 3 38.519774 5.4802259 41 8.5 41 L 39.5 41 C 42.519774 41 45 38.519774 45 35.5 L 45 12.5 C 45 9.4802259 42.519774 7 39.5 7 L 8.5 7 z M 8.5 10 L 9 10 L 9 38 L 8.5 38 C 7.1017741 38 6 36.898226 6 35.5 L 6 12.5 C 6 11.101774 7.1017741 10 8.5 10 z M 12 10 L 39.5 10 C 40.898226 10 42 11.101774 42 12.5 L 42 35.5 C 42 36.898226 40.898226 38 39.5 38 L 12 38 L 12 10 z M 21.5 15 C 19.57 15 18 16.57 18 18.5 L 18 29.5 C 18 30.224 18.220609 30.898031 18.599609 31.457031 L 25.363281 24.691406 C 26.285281 23.769406 27.785078 23.769406 28.705078 24.691406 L 35.425781 31.410156 C 35.786781 30.860156 36 30.206 36 29.5 L 36 18.5 C 36 16.57 34.43 15 32.5 15 L 21.5 15 z M 30.5 19 C 31.328 19 32 19.672 32 20.5 C 32 21.328 31.328 22 30.5 22 C 29.672 22 29 21.328 29 20.5 C 29 19.672 29.672 19 30.5 19 z M 27.035156 26 C 26.941906 26 26.848344 26.034969 26.777344 26.105469 L 20.154297 32.728516 C 20.568297 32.902516 21.023 33 21.5 33 L 32.5 33 C 32.995 33 33.464578 32.894031 33.892578 32.707031 L 27.292969 26.105469 C 27.221969 26.034969 27.128406 26 27.035156 26 z"/></svg>