<svg width="18" height="18" viewBox="0 0 18 18" fill="none" xmlns="http://www.w3.org/2000/svg">
<path d="M4.5 0.75H3C1.75736 0.75 0.75 1.75736 0.75 3V4.5M13.5 0.75H15C16.2426 0.75 17.25 1.75736 17.25 3V4.5M17.25 13.5V15C17.25 16.2426 16.2426 17.25 15 17.25H13.5M4.5 17.25H3C1.75736 17.25 0.75 16.2426 0.75 15V13.5M12 9C12 10.6569 10.6569 12 9 12C7.34315 12 6 10.6569 6 9C6 7.34315 7.34315 6 9 6C10.6569 6 12 7.34315 12 9Z" stroke="#BC9C75" stroke-width="1.5" stroke-linecap="round" stroke-linejoin="round"/>
</svg>