<svg width="371" height="376" viewBox="0 0 371 376" fill="none" xmlns="http://www.w3.org/2000/svg">
<rect width="370.094" height="376" rx="59" fill="#B79C75"/>
<circle cx="188.173" cy="188.173" r="159.173" fill="white"/>
<path d="M137.238 124C124.468 124 114 134.469 114 147.24V204.445V225.723C114 232.826 122.695 237.248 128.44 233.076L142.935 222.532C144.751 233.548 154.316 241.987 165.838 241.987H210.567L242.56 265.254C244.151 266.409 246.018 267 247.902 267C249.31 267 250.727 266.67 252.035 266.001C255.099 264.443 257 261.337 257 257.901V179.418C257 166.604 246.575 156.178 233.763 156.178H228.4V147.24C228.4 134.469 217.932 124 205.163 124H137.238ZM137.238 134.726H205.163C212.134 134.726 217.675 140.268 217.675 147.24V186.569C217.675 193.541 212.134 199.082 205.163 199.082H158.688C157.553 199.082 156.448 199.442 155.531 200.109L124.725 222.518V204.445V147.24C124.725 140.268 130.266 134.726 137.238 134.726ZM147.963 149.027C147.252 149.017 146.546 149.149 145.887 149.414C145.228 149.679 144.627 150.072 144.121 150.571C143.615 151.07 143.213 151.665 142.939 152.32C142.665 152.976 142.524 153.68 142.524 154.39C142.524 155.101 142.665 155.805 142.939 156.461C143.213 157.116 143.615 157.711 144.121 158.21C144.627 158.709 145.228 159.102 145.887 159.367C146.546 159.632 147.252 159.764 147.963 159.753H194.438C195.148 159.764 195.854 159.632 196.513 159.367C197.172 159.102 197.773 158.709 198.279 158.21C198.785 157.711 199.187 157.116 199.461 156.461C199.735 155.805 199.876 155.101 199.876 154.39C199.876 153.68 199.735 152.976 199.461 152.32C199.187 151.665 198.785 151.07 198.279 150.571C197.773 150.072 197.172 149.679 196.513 149.414C195.854 149.149 195.148 149.017 194.438 149.027H147.963ZM228.4 166.904H233.763C240.662 166.904 246.275 172.517 246.275 179.418V254.696L215.469 232.287C214.553 231.622 213.446 231.26 212.313 231.26H165.838C158.938 231.26 153.325 225.647 153.325 218.747V214.976L160.433 209.808H205.163C217.932 209.808 228.4 199.34 228.4 186.569V166.904ZM147.963 174.055C147.252 174.045 146.546 174.176 145.887 174.441C145.228 174.706 144.627 175.1 144.121 175.599C143.615 176.098 143.213 176.692 142.939 177.348C142.665 178.004 142.524 178.707 142.524 179.418C142.524 180.129 142.665 180.832 142.939 181.488C143.213 182.144 143.615 182.738 144.121 183.237C144.627 183.736 145.228 184.13 145.887 184.395C146.546 184.66 147.252 184.791 147.963 184.781H183.713C184.423 184.791 185.129 184.66 185.788 184.395C186.447 184.13 187.048 183.736 187.554 183.237C188.06 182.738 188.462 182.144 188.736 181.488C189.01 180.832 189.151 180.129 189.151 179.418C189.151 178.707 189.01 178.004 188.736 177.348C188.462 176.692 188.06 176.098 187.554 175.599C187.048 175.1 186.447 174.706 185.788 174.441C185.129 174.176 184.423 174.045 183.713 174.055H147.963Z" fill="#B79C75"/>
</svg>