<svg width="371" height="376" viewBox="0 0 371 376" fill="none" xmlns="http://www.w3.org/2000/svg">
<rect width="370.094" height="376" rx="59" fill="#1E1E20"/>
<circle cx="188.173" cy="188.173" r="159.173" fill="white"/>
<path d="M139.598 104C138.061 104.001 136.581 104.581 135.452 105.624L108.966 130.086C108.346 130.658 107.852 131.353 107.513 132.126C107.175 132.899 107 133.733 107 134.577V150.885C107 158.783 110.116 165.951 115.15 171.373V256.885C115.15 258.506 115.794 260.062 116.94 261.209C118.086 262.355 119.641 263 121.262 263H255.73C257.351 263 258.906 262.355 260.052 261.209C261.198 260.062 261.842 258.506 261.842 256.885V171.381C266.881 165.958 270 158.787 270 150.885V134.577H269.984C269.985 133.734 269.811 132.9 269.474 132.127C269.137 131.354 268.644 130.659 268.026 130.086L241.54 105.624C240.411 104.581 238.931 104.001 237.394 104H139.598ZM141.986 116.231H235.006L248.249 128.462H128.743L141.986 116.231ZM119.224 140.692H157.251V150.885C157.251 150.901 157.251 150.916 157.251 150.932C157.223 161.024 148.893 169.231 138.245 169.231C127.58 169.231 119.224 160.999 119.224 150.885V140.692ZM169.483 140.692H207.517V150.885C207.517 160.999 199.161 169.231 188.496 169.231C177.848 169.231 169.51 161.024 169.483 150.932C169.483 150.916 169.483 150.901 169.483 150.885V140.692ZM219.741 140.692H257.776V150.885C257.776 160.999 249.42 169.231 238.755 169.231C228.089 169.231 219.741 160.999 219.741 150.885V140.692ZM213.629 168.036C219.308 175.952 228.241 181.462 238.755 181.462C242.57 181.462 246.22 180.749 249.618 179.503V250.769H184.421V199.808C184.421 198.186 183.777 196.63 182.631 195.484C181.485 194.337 179.93 193.692 178.309 193.692H145.711C144.09 193.692 142.535 194.337 141.389 195.484C140.243 196.63 139.599 198.186 139.598 199.808V250.769H127.374V179.503C130.774 180.75 134.428 181.462 138.245 181.462C148.491 181.462 157.647 176.529 163.363 168.952C169.081 176.531 178.249 181.462 188.496 181.462C199.011 181.462 207.951 175.954 213.629 168.036ZM202.758 193.692C201.137 193.692 199.582 194.337 198.436 195.484C197.29 196.63 196.646 198.186 196.646 199.808V228.346C196.646 229.968 197.29 231.523 198.436 232.67C199.582 233.817 201.137 234.461 202.758 234.462H231.281C232.902 234.461 234.457 233.817 235.603 232.67C236.749 231.523 237.393 229.968 237.394 228.346V199.808C237.393 198.186 236.749 196.63 235.603 195.484C234.457 194.337 232.902 193.692 231.281 193.692H202.758ZM151.823 205.923H172.197V250.769H151.823V205.923ZM208.87 205.923H225.169V222.231H208.87V205.923Z" fill="#1E1E20"/>
</svg>