<svg width="371" height="376" viewBox="0 0 371 376" fill="none" xmlns="http://www.w3.org/2000/svg">
<rect width="370.094" height="376" rx="59" fill="#B79C75"/>
<circle cx="188.173" cy="188.173" r="159.173" fill="white"/>
<path d="M199.334 108.023C197.649 108.119 195.974 108.526 194.412 109.374C191.286 111.068 189.393 114.07 188.259 117.223C188.256 117.225 188.254 117.228 188.251 117.23C187.971 118.016 188.117 117.654 188.061 117.843C188.005 118.033 187.931 118.284 187.841 118.596C187.66 119.219 187.416 120.078 187.123 121.1C186.537 123.143 185.769 125.833 185.006 128.504C183.48 133.846 181.966 139.135 181.966 139.135C181.966 139.14 181.966 139.145 181.966 139.15C181.537 140.667 181.18 141.471 181.029 141.705C181.026 141.71 181.024 141.715 181.021 141.72C175.486 150.322 169.524 158.986 163.734 167.75H137.877C128.623 167.75 121 175.348 121 184.573V244.388C121 253.612 128.623 261.21 137.877 261.21H152.879C157.594 261.21 161.853 259.211 164.928 256.056C173.584 257.924 183.245 259.994 191.115 261.649C195.24 262.516 198.865 263.267 201.597 263.817C204.327 264.367 205.343 264.661 207.142 264.832C208.298 264.943 209.445 265 210.578 265C226.636 265 240.831 254.113 244.94 238.298C248.081 226.194 254.515 201.103 254.543 200.994C255.066 199.072 255.797 196.488 255.964 193.393C255.964 193.391 255.964 193.388 255.964 193.386C256.323 186.699 253.994 180.192 249.423 175.373C249.423 175.37 249.423 175.368 249.423 175.366C244.776 170.472 238.263 167.764 231.41 167.75C231.405 167.75 231.401 167.75 231.396 167.75H216.511C217.83 163.049 219.131 158.506 220.079 154.819C220.079 154.816 220.079 154.814 220.079 154.811C222.344 145.952 222.873 138.04 221.5 130.446C221.5 130.444 221.5 130.441 221.5 130.439C220.81 126.651 219.509 121.125 215.574 116.04C212.714 112.346 208.785 109.657 204.33 108.541C204.325 108.541 204.32 108.541 204.315 108.541C202.713 108.143 201.019 107.926 199.334 108.023ZM200.074 119.187C200.334 119.184 200.8 119.226 201.59 119.421C203.585 119.92 205.138 120.915 206.666 122.889C208.904 125.781 209.854 129.266 210.431 132.439C211.48 138.242 211.159 144.301 209.179 152.044C207.826 157.306 203.722 171.839 203.722 171.839C203.487 172.672 203.448 173.549 203.61 174.399C203.771 175.25 204.128 176.052 204.652 176.742C205.177 177.433 205.854 177.993 206.632 178.378C207.41 178.764 208.266 178.965 209.135 178.965H231.396C235.356 178.975 238.74 180.435 241.248 183.076C243.705 185.666 244.931 188.999 244.727 192.787C244.64 194.41 244.206 196.153 243.687 198.059C243.68 198.086 243.672 198.112 243.665 198.139C243.665 198.139 237.185 223.4 234.047 235.487C231.188 246.492 221.582 253.785 210.578 253.785C209.798 253.785 209.014 253.744 208.227 253.668C208.224 253.668 208.222 253.668 208.219 253.668C209.078 253.749 206.5 253.367 203.824 252.828C201.148 252.289 197.545 251.538 193.437 250.674C186.262 249.166 177.566 247.298 169.514 245.563C169.545 245.154 169.755 244.803 169.755 244.388V179.009C176.397 168.67 183.652 158.399 190.485 147.78L190.493 147.773C191.725 145.864 192.277 144.009 192.793 142.187C192.796 142.174 194.302 136.902 195.825 131.57C196.588 128.901 197.351 126.224 197.935 124.189C198.227 123.171 198.477 122.314 198.653 121.706C198.741 121.402 198.81 121.161 198.858 120.998C199.444 119.377 199.841 119.195 199.788 119.223C199.761 119.238 199.814 119.19 200.074 119.187ZM137.877 178.965H158.504V244.388C158.504 247.552 156.053 249.995 152.879 249.995H137.877C134.702 249.995 132.251 247.552 132.251 244.388V184.573C132.251 181.408 134.702 178.965 137.877 178.965Z" fill="#B79C75"/>
</svg>