<svg width="24" height="21" viewBox="0 0 24 21" fill="none" xmlns="http://www.w3.org/2000/svg">
<path d="M23.9888 4.85079C23.8817 7.21435 22.2531 10.4507 19.0925 14.5598C15.8301 18.8533 13.0712 21 10.8105 21C9.41232 21 8.22841 19.6935 7.25879 17.0806C5.37311 10.0766 4.56955 5.97294 3.01066 5.97294C2.82852 5.97294 2.20174 6.35783 1.12498 7.11677L0 5.64225C2.76423 3.18653 5.40525 0.45434 7.06058 0.302551C8.93018 0.118237 10.0766 1.41386 10.5105 4.17858C12.048 14.0177 12.7283 15.5031 15.5247 11.047C16.5265 9.44239 17.0675 8.22266 17.1425 7.3824C17.3997 4.89415 15.2247 5.06221 13.7515 5.70189C14.9301 1.79333 17.1854 -0.104025 20.5121 0.00439531C22.9656 0.0694475 24.1281 1.69033 23.9888 4.85079V4.85079Z" fill="white"/>
</svg>