<svg width="24px" height="24px" viewBox="0 0 24 24" version="1.1" xmlns="http://www.w3.org/2000/svg" xmlns:xlink="http://www.w3.org/1999/xlink">
    <!-- Generator: Sketch 62 (91390) - https://sketch.com -->
    <title>Icons/youtube-white</title>
    <desc>Created with Sketch.</desc>
    <g id="Icons/youtube" stroke="none" stroke-width="1" fill="none" fill-rule="evenodd">
        <g id="icons8-play_button" transform="translate(2.000000, 4.000000)" fill="#FFFFFF">
            <path d="M19.582,2.186 C19.352,1.326 18.674,0.648 17.814,0.418 C16.254,0 10,0 10,0 C10,0 3.746,0 2.186,0.418 C1.326,0.648 0.648,1.326 0.418,2.186 C0,3.746 0,8 0,8 C0,8 0,12.254 0.418,13.814 C0.648,14.674 1.326,15.352 2.186,15.582 C3.746,16 10,16 10,16 C10,16 16.254,16 17.814,15.582 C18.675,15.352 19.352,14.674 19.582,13.814 C20,12.254 20,8 20,8 C20,8 20,3.746 19.582,2.186 Z M8,11.464 L8,4.536 L14,8 L8,11.464 Z" id="Shape"/>
        </g>
    </g>
</svg>